<svg xmlns="http://www.w3.org/2000/svg" viewBox="0 0 1440 320"><path fill="gold" fill-opacity="1" d="M0,64L16,90.7C32,117,64,171,96,160C128,149,160,75,192,48C224,21,256,43,288,64C320,85,352,107,384,106.7C416,107,448,85,480,106.7C512,128,544,192,576,218.7C608,245,640,235,672,202.7C704,171,736,117,768,128C800,139,832,213,864,256C896,299,928,309,960,266.7C992,224,1024,128,1056,90.7C1088,53,1120,75,1152,90.7C1184,107,1216,117,1248,144C1280,171,1312,213,1344,234.7C1376,256,1408,256,1424,256L1440,256L1440,320L1424,320C1408,320,1376,320,1344,320C1312,320,1280,320,1248,320C1216,320,1184,320,1152,320C1120,320,1088,320,1056,320C1024,320,992,320,960,320C928,320,896,320,864,320C832,320,800,320,768,320C736,320,704,320,672,320C640,320,608,320,576,320C544,320,512,320,480,320C448,320,416,320,384,320C352,320,320,320,288,320C256,320,224,320,192,320C160,320,128,320,96,320C64,320,32,320,16,320L0,320Z"/></svg>