<svg xmlns="http://www.w3.org/2000/svg" viewBox="0 0 1440 320"><path fill="gold" fill-opacity="1" d="M0,256L21.8,245.3C43.6,235,87,213,131,197.3C174.5,181,218,171,262,138.7C305.5,107,349,53,393,53.3C436.4,53,480,107,524,122.7C567.3,139,611,117,655,106.7C698.2,96,742,96,785,122.7C829.1,149,873,203,916,218.7C960,235,1004,213,1047,176C1090.9,139,1135,85,1178,74.7C1221.8,64,1265,96,1309,96C1352.7,96,1396,64,1418,48L1440,32L1440,320L1418.2,320C1396.4,320,1353,320,1309,320C1265.5,320,1222,320,1178,320C1134.5,320,1091,320,1047,320C1003.6,320,960,320,916,320C872.7,320,829,320,785,320C741.8,320,698,320,655,320C610.9,320,567,320,524,320C480,320,436,320,393,320C349.1,320,305,320,262,320C218.2,320,175,320,131,320C87.3,320,44,320,22,320L0,320Z"/></svg>