<?xml version="1.0" standalone="no"?><svg xmlns="http://www.w3.org/2000/svg" viewBox="0 0 1440 320"><path fill="#ffd700" fill-opacity="1" d="M0,288L30,250.7C60,213,120,139,180,117.3C240,96,300,128,360,144C420,160,480,160,540,154.7C600,149,660,139,720,128C780,117,840,107,900,85.3C960,64,1020,32,1080,48C1140,64,1200,128,1260,181.3C1320,235,1380,277,1410,298.7L1440,320L1440,320L1410,320C1380,320,1320,320,1260,320C1200,320,1140,320,1080,320C1020,320,960,320,900,320C840,320,780,320,720,320C660,320,600,320,540,320C480,320,420,320,360,320C300,320,240,320,180,320C120,320,60,320,30,320L0,320Z"></path></svg>